<?xml version="1.0" standalone="no"?><!DOCTYPE svg PUBLIC "-//W3C//DTD SVG 1.1//EN"
        "http://www.w3.org/Graphics/SVG/1.1/DTD/svg11.dtd">
<svg t="1688519326897" class="icon" viewBox="0 0 1024 1024" version="1.1" xmlns="http://www.w3.org/2000/svg" p-id="1546"
     width="80" height="80" xmlns:xlink="http://www.w3.org/1999/xlink">
    <defs>
        <linearGradient spreadMethod="pad" y2="0" x2="0" y1="1" x1="0" id="svg_3">
            <stop offset="0" stop-opacity="0.99609" stop-color="#0368ff"/>
            <stop offset="1" stop-opacity="0.99609" stop-color="#02b7fe"/>
        </linearGradient>
    </defs>
    <g>
        <title>Layer 1</title>
        <path id="svg_1" p-id="1612" fill="url(#svg_3)"
              d="m85.33333,512.64c0,-224.768 179.62667,-427.30667 427.52,-427.30667c242.34667,0 425.81334,198.69867 425.81334,426.02667c0,263.68 -215.04,427.30667 -426.66667,427.30667c-69.97333,0 -147.62667,-18.77334 -209.92,-55.552c-21.76,-13.22667 -40.10667,-23.04 -63.57333,-15.36l-86.18667,25.6c-21.76,6.82666 -41.38667,-10.24 -34.98667,-33.28l28.58667,-95.744c4.69333,-13.22667 3.84,-27.34934 -2.98667,-38.48534c-36.69333,-67.49866 -57.6,-141.44 -57.6,-213.20533zm371.2,0c0,30.336 24.32,54.69867 54.61334,55.12533c30.29333,0 54.61333,-24.74666 54.61333,-54.69866c0,-30.336 -24.32,-54.69867 -54.61333,-54.69867c-29.86667,-0.42667 -54.61334,24.36267 -54.61334,54.272zm196.69334,0.42667c0,29.90933 24.32,54.69866 54.61333,54.69866c30.29333,0 54.61333,-24.74666 54.61333,-54.69866c0,-30.336 -24.32,-54.69867 -54.61333,-54.69867c-30.29333,0 -54.61333,24.36267 -54.61333,54.69867zm-338.77334,54.69866c-29.86666,0 -54.61333,-24.74666 -54.61333,-54.69866c0,-30.336 24.32,-54.69867 54.61333,-54.69867c30.29334,0 54.61334,24.36267 54.61334,54.69867a55.04,55.04 0 0 1 -54.61334,54.69866z"/>
        <path transform="rotate(135 246.568 216.08)" stroke="#000" stroke-width="0" fill="#066dff" d="m213.93445,-0.13721l-100.20037,0l-81.96922,82.50889l0,100.86005l247.43613,249.06518l182.16959,-183.3848l-247.43613,-249.04931l0,-0.00001zm-122.40233,95.68937c-9.75374,-9.81796 -9.75374,-25.72653 0,-35.52863c9.75374,-9.81796 25.55827,-9.81796 35.312,0c9.76949,9.83381 9.75374,25.71067 0,35.54448c-9.75374,9.81796 -25.55827,9.81796 -35.312,-0.01586z" id="svg_7"/>
        <text fill="#ffffff" x="132.46951" y="203.36816" id="svg_8" stroke-width="0" font-size="24" font-family="Noto Sans JP" text-anchor="start" xml:space="preserve" stroke="#000" transform="matrix(6.61849 0 0 6.01862 -793.617 -954.854)">Free</text>
    </g>
</svg>